<svg width="45" height="45" viewBox="0 0 45 45" fill="none" xmlns="http://www.w3.org/2000/svg">
<path d="M44.5 22.25C44.5 17.8494 43.1951 13.5476 40.7502 9.88857C38.3053 6.22958 34.8304 3.37774 30.7647 1.69369C26.6991 0.00964057 22.2253 -0.430984 17.9093 0.427538C13.5932 1.28606 9.6286 3.40517 6.51688 6.51688C3.40517 9.6286 1.28606 13.5932 0.427538 17.9093C-0.430984 22.2253 0.00964057 26.6991 1.69369 30.7647C3.37774 34.8304 6.22958 38.3053 9.88857 40.7502C13.5476 43.1951 17.8494 44.5 22.25 44.5H22.64V27.18H17.86V21.61H22.64V17.5C22.64 12.75 25.54 10.16 29.78 10.16C31.213 10.1533 32.6452 10.2267 34.07 10.38V15.38H31.15C28.85 15.38 28.39 16.47 28.39 18.08V21.6H33.91L33.19 27.17H28.39V43.64C33.0325 42.3054 37.1149 39.4969 40.021 35.6383C42.9272 31.7797 44.4992 27.0805 44.5 22.25Z" fill="white"/>
</svg>
