<svg width="45" height="45" viewBox="0 0 45 45" fill="none" xmlns="http://www.w3.org/2000/svg">
<path d="M26.51 22.25C26.512 23.093 26.2638 23.9176 25.7969 24.6194C25.33 25.3213 24.6654 25.8689 23.8872 26.1929C23.1089 26.5168 22.2521 26.6026 21.425 26.4394C20.598 26.2761 19.838 25.8712 19.2413 25.2758C18.6445 24.6804 18.2378 23.9214 18.0726 23.0948C17.9074 22.2681 17.9912 21.4111 18.3133 20.6321C18.6354 19.8531 19.1814 19.1872 19.8822 18.7186C20.583 18.2501 21.407 18 22.25 18C23.3781 18 24.4601 18.4474 25.2587 19.2442C26.0573 20.0409 26.5073 21.1219 26.51 22.25Z" fill="white"/>
<path d="M32.21 14.7102C31.9898 14.155 31.6481 13.6561 31.21 13.2502C30.8062 12.8051 30.3023 12.4623 29.74 12.2502C28.9801 11.9722 28.179 11.8234 27.37 11.8102C26.02 11.7502 25.62 11.7402 22.21 11.7402C18.8 11.7402 18.39 11.7402 17.05 11.8102C16.2377 11.8238 15.4334 11.9725 14.67 12.2502C14.123 12.4675 13.6263 12.7942 13.2101 13.2104C12.794 13.6265 12.4673 14.1233 12.25 14.6702C11.9672 15.4323 11.8184 16.2375 11.81 17.0502C11.75 18.3902 11.74 18.8002 11.74 22.2102C11.74 25.6202 11.74 26.0302 11.81 27.3702C11.8185 28.1797 11.9674 28.9816 12.25 29.7402C12.4621 30.3026 12.8048 30.8065 13.25 31.2102C13.6559 31.6484 14.1548 31.9901 14.71 32.2102C15.4734 32.4879 16.2777 32.6367 17.09 32.6502C18.43 32.7102 18.84 32.7202 22.25 32.7202C25.66 32.7202 26.07 32.7202 27.41 32.6502C28.219 32.637 29.0201 32.4883 29.78 32.2102C30.3328 31.9983 30.8349 31.6724 31.2535 31.2538C31.6722 30.8351 31.9981 30.3331 32.21 29.7802C32.4881 29.0204 32.6368 28.2193 32.65 27.4102C32.71 26.0702 32.72 25.6602 32.72 22.2502C32.72 18.8402 32.72 18.4302 32.65 17.0902C32.6364 16.278 32.4877 15.4737 32.21 14.7102ZM22.21 28.8102C20.9125 28.8102 19.6442 28.4255 18.5655 27.7047C17.4867 26.9839 16.6459 25.9593 16.1493 24.7606C15.6528 23.562 15.5229 22.243 15.776 20.9704C16.0292 19.6979 16.6539 18.529 17.5714 17.6116C18.4888 16.6942 19.6577 16.0694 20.9302 15.8163C22.2027 15.5632 23.5217 15.6931 24.7204 16.1896C25.9191 16.6861 26.9436 17.5269 27.6644 18.6057C28.3853 19.6845 28.77 20.9528 28.77 22.2502C28.77 23.9831 28.0844 25.6457 26.8628 26.8748C25.6412 28.1039 23.9829 28.7997 22.25 28.8102H22.21ZM29.07 17.0002C28.7674 17.0002 28.4716 16.9105 28.22 16.7424C27.9684 16.5743 27.7723 16.3353 27.6565 16.0557C27.5407 15.7762 27.5104 15.4685 27.5694 15.1717C27.6284 14.875 27.7741 14.6023 27.9881 14.3884C28.2021 14.1744 28.4747 14.0287 28.7715 13.9696C29.0683 13.9106 29.3759 13.9409 29.6555 14.0567C29.9351 14.1725 30.174 14.3686 30.3421 14.6202C30.5103 14.8718 30.6 15.1676 30.6 15.4702C30.6013 15.6715 30.5627 15.8711 30.4862 16.0573C30.4098 16.2435 30.2972 16.4127 30.1548 16.5551C30.0125 16.6974 29.8433 16.8101 29.6571 16.8865C29.4708 16.9629 29.2713 17.0016 29.07 17.0002Z" fill="white"/>
<path d="M22.25 0C17.8494 0 13.5476 1.30494 9.88857 3.7498C6.22958 6.19466 3.37774 9.66964 1.69369 13.7353C0.00964057 17.8009 -0.430984 22.2747 0.427538 26.5908C1.28606 30.9068 3.40517 34.8714 6.51688 37.9831C9.6286 41.0948 13.5932 43.214 17.9093 44.0725C22.2253 44.931 26.6991 44.4904 30.7647 42.8063C34.8304 41.1223 38.3053 38.2704 40.7502 34.6114C43.1951 30.9524 44.5 26.6506 44.5 22.25C44.5 16.3489 42.1558 10.6896 37.9831 6.51687C33.8105 2.34419 28.1511 0 22.25 0V0ZM35 27.52C34.9806 28.5802 34.7776 29.6291 34.4 30.62C34.0724 31.4673 33.5714 32.2367 32.9291 32.8791C32.2867 33.5214 31.5173 34.0224 30.67 34.35C29.6791 34.7275 28.6302 34.9305 27.57 34.95C26.2 35.01 25.77 35.03 22.3 35.03C18.83 35.03 18.35 35 17 35C15.9398 34.9805 14.8909 34.7775 13.9 34.4C13.049 34.0797 12.2778 33.5781 11.64 32.93C10.9922 32.29 10.4877 31.5196 10.16 30.67C9.79117 29.677 9.59172 28.6291 9.57001 27.57C9.51001 26.2 9.49001 25.77 9.49001 22.3C9.49001 18.83 9.49001 18.39 9.57001 17.03C9.59172 15.9709 9.79117 14.923 10.16 13.93C10.4838 13.0784 10.9888 12.3073 11.64 11.67C12.28 11.0222 13.0504 10.5177 13.9 10.19C14.8901 9.80407 15.9381 9.58771 17 9.55C18.36 9.49 18.8 9.47 22.27 9.47C25.74 9.47 26.17 9.47 27.54 9.55C28.5991 9.57172 29.647 9.77116 30.64 10.14C31.487 10.4708 32.256 10.9742 32.8981 11.618C33.5402 12.2618 34.0414 13.0321 34.37 13.88C34.7601 14.8754 34.9733 15.9312 35 17C35.06 18.36 35.08 18.8 35.08 22.27C35.08 25.74 35 26.15 35 27.52Z" fill="white"/>
</svg>
