<svg width="39" height="800" viewBox="0 0 39 800" fill="none" xmlns="http://www.w3.org/2000/svg">
<path d="M38.9994 399.937C38.9788 395.417 37.2662 391.056 34.1747 387.651C31.0833 384.246 26.8199 382.025 22.1645 381.394V0H16.8871V381.394C12.2206 382.005 7.94259 384.221 4.84528 387.631C1.74796 391.042 0.0412598 395.416 0.0412598 399.943C0.0412598 404.47 1.74796 408.844 4.84528 412.255C7.94259 415.665 12.2206 417.881 16.8871 418.492V800H22.2832V418.467C26.9136 417.809 31.1456 415.578 34.2122 412.179C37.2788 408.779 38.9772 404.436 38.9994 399.937ZM20.7396 414.852V415.017C19.9229 415.08 19.1023 415.08 18.2856 415.017V414.852C14.3916 414.543 10.7608 412.838 8.11403 410.075C5.46727 407.311 3.99805 403.693 3.99805 399.937C3.99805 396.18 5.46727 392.562 8.11403 389.799C10.7608 387.036 14.3916 385.33 18.2856 385.021V384.932C19.1111 384.869 19.9405 384.869 20.766 384.932V385.021C24.66 385.33 28.2908 387.036 30.9375 389.799C33.5843 392.562 35.0535 396.18 35.0535 399.937C35.0535 403.693 33.5843 407.311 30.9375 410.075C28.2908 412.838 24.66 414.543 20.766 414.852H20.7396Z" fill="white"/>
</svg>
