<svg width="45" height="45" viewBox="0 0 45 45" fill="none" xmlns="http://www.w3.org/2000/svg">
<g clip-path="url(#clip0)">
<path d="M22.25 0C17.8494 0 13.5476 1.30494 9.88857 3.7498C6.22958 6.19466 3.37774 9.66964 1.69369 13.7353C0.00964057 17.8009 -0.430984 22.2747 0.427538 26.5908C1.28606 30.9068 3.40517 34.8714 6.51688 37.9831C9.6286 41.0948 13.5932 43.214 17.9093 44.0725C22.2253 44.931 26.6991 44.4904 30.7647 42.8063C34.8304 41.1223 38.3053 38.2704 40.7502 34.6114C43.1951 30.9524 44.5 26.6506 44.5 22.25C44.5 16.3489 42.1558 10.6896 37.9831 6.51687C33.8105 2.34419 28.1511 0 22.25 0V0ZM32.41 17.35C32.41 17.57 32.41 17.79 32.41 18.01C32.4233 19.921 32.0569 21.8155 31.332 23.5837C30.6071 25.352 29.5382 26.9586 28.1874 28.3103C26.8366 29.6621 25.2307 30.7321 23.463 31.4581C21.6953 32.1842 19.801 32.552 17.89 32.54C15.1134 32.5405 12.3953 31.742 10.06 30.24C10.4648 30.2885 10.8723 30.3119 11.28 30.31C13.5814 30.3168 15.8181 29.5489 17.63 28.13C16.563 28.109 15.5291 27.7557 14.6723 27.1194C13.8155 26.4831 13.1785 25.5954 12.85 24.58C13.1797 24.6422 13.5146 24.6723 13.85 24.67C14.3061 24.6719 14.7603 24.6113 15.2 24.49C14.044 24.2589 13.0038 23.6344 12.2563 22.7228C11.5089 21.8112 11.1002 20.6689 11.1 19.49C11.0952 19.4669 11.0952 19.4431 11.1 19.42C11.8047 19.8225 12.5987 20.0425 13.41 20.06C12.33 19.3363 11.5657 18.2288 11.2723 16.9622C10.9789 15.6957 11.1783 14.3649 11.83 13.24C13.1109 14.8181 14.7095 16.1091 16.5219 17.0291C18.3344 17.9491 20.32 18.4775 22.35 18.58C22.2657 18.199 22.2221 17.8102 22.22 17.42C22.231 16.4072 22.5427 15.4205 23.1156 14.5852C23.6885 13.7499 24.4966 13.1037 25.4375 12.7287C26.3784 12.3536 27.4095 12.2666 28.3999 12.4787C29.3903 12.6908 30.2953 13.1925 31 13.92C32.143 13.6951 33.2389 13.2757 34.24 12.68C33.8592 13.8627 33.0636 14.8678 32 15.51C33.0351 15.3928 34.0466 15.1197 35 14.7C34.3028 15.7317 33.4254 16.6293 32.41 17.35Z" fill="white"/>
</g>
<defs>
<clipPath id="clip0">
<rect width="44.5" height="44.5" fill="white"/>
</clipPath>
</defs>
</svg>
