<svg width="45" height="45" viewBox="0 0 45 45" fill="none" xmlns="http://www.w3.org/2000/svg">
<path d="M19.48 26.4201L26.72 22.2501L19.48 18.0801V26.4201Z" fill="white"/>
<path d="M22.25 0C17.8494 0 13.5476 1.30494 9.88857 3.7498C6.22958 6.19466 3.37774 9.66964 1.69369 13.7353C0.00964057 17.8009 -0.430984 22.2747 0.427538 26.5908C1.28606 30.9068 3.40517 34.8714 6.51688 37.9831C9.6286 41.0948 13.5932 43.214 17.9093 44.0725C22.2253 44.931 26.6991 44.4904 30.7647 42.8063C34.8304 41.1223 38.3053 38.2704 40.7502 34.6114C43.1951 30.9524 44.5 26.6506 44.5 22.25C44.5 16.3489 42.1558 10.6896 37.9831 6.51687C33.8105 2.34419 28.1511 0 22.25 0V0ZM36.15 22.27C36.1661 24.526 35.9753 26.7788 35.58 29C35.4212 29.5868 35.1114 30.1217 34.6816 30.5516C34.2518 30.9814 33.7168 31.2912 33.13 31.45C31 32 22.25 32 22.25 32C22.25 32 13.57 32 11.37 31.41C10.7832 31.2512 10.2483 30.9414 9.81842 30.5116C9.38857 30.0817 9.07882 29.5468 8.92001 28.96C8.52655 26.752 8.33575 24.5127 8.35001 22.27C8.33637 20.0273 8.52715 17.7881 8.92001 15.58C9.08209 14.9926 9.39261 14.4569 9.8217 14.0243C10.2508 13.5917 10.784 13.2768 11.37 13.11C13.55 12.54 22.25 12.54 22.25 12.54C22.25 12.54 30.95 12.54 33.13 13.13C33.7168 13.2888 34.2518 13.5986 34.6816 14.0284C35.1114 14.4583 35.4212 14.9932 35.58 15.58C35.9876 17.7861 36.1785 20.0268 36.15 22.27Z" fill="white"/>
</svg>
